<svg xmlns="http://www.w3.org/2000/svg" version="1.1" xmlns:xlink="http://www.w3.org/1999/xlink" xmlns:svgjs="http://svgjs.dev/svgjs" width="1200pt" height="1200pt"><svg width="1200pt" height="1200pt" version="1.1" viewBox="0 0 1200 1200" xmlns="http://www.w3.org/2000/svg">
 <path d="m963.24 511.32h-42.477c-1.0391-0.003906-1.9766-0.61328-2.4023-1.5586-6.8828-24.598-16.586-48.316-28.918-70.684-0.55078-0.83594-0.55078-1.918 0-2.7578l30-30.121c7.5156-7.1328 11.844-16.996 12-27.359-0.070312-10.418-4.4062-20.348-12-27.48l-70.441-70.559c-7.2188-7.3203-17.078-11.43-27.359-11.402-10.277 0-20.125 4.1055-27.359 11.402l-29.883 29.398c-0.88281 0.54297-1.9961 0.54297-2.8789 0-22.406-12.543-46.211-22.41-70.918-29.398-1.25-0.51562-2.0234-1.7734-1.9219-3.1211v-40.918c0-10.281-4.082-20.141-11.352-27.41-7.2695-7.2695-17.129-11.352-27.406-11.352h-99.844c-10.277 0-20.137 4.082-27.406 11.352-7.2695 7.2695-11.352 17.129-11.352 27.41v42.359c0.0625 1.1133-0.55469 2.1562-1.5586 2.6406-24.766 6.9453-48.613 16.812-71.043 29.398-0.96484 0.69922-2.2734 0.69922-3.2383 0l-29.762-29.762c-7.2852-7.2461-17.141-11.312-27.418-11.312-10.277 0-20.137 4.0664-27.422 11.312l-70.559 70.559v0.003907c-7.3047 7.2539-11.414 17.125-11.414 27.418 0 10.297 4.1094 20.168 11.414 27.422l30 30c0.75391 0.75391 1.0312 1.8594 0.71875 2.8789-12.441 22.191-22.266 45.746-29.277 70.199-0.35547 1.1094-1.3633 1.875-2.5234 1.9219h-42.477c-10.281 0-20.141 4.082-27.41 11.352-7.2695 7.2695-11.352 17.129-11.352 27.406v99.723c0 10.277 4.082 20.137 11.352 27.406 7.2695 7.2695 17.129 11.352 27.41 11.352h43.441-0.003906c1.0469-0.027343 2.0039 0.59375 2.4023 1.5625 7.0977 24.25 16.961 47.602 29.398 69.598 0.58984 1.1875 0.29297 2.625-0.71875 3.4805l-31.078 31.199h-0.003906c-7.2461 7.2852-11.316 17.145-11.316 27.422 0 10.277 4.0703 20.133 11.316 27.418l70.562 70.562c7.2461 7.2617 17.098 11.324 27.359 11.277 10.301 0.078125 20.203-3.9844 27.48-11.277l31.078-31.199v-0.003906c0.92187-0.55859 2.0781-0.55859 3 0 21.926 12.227 45.203 21.852 69.359 28.684 1.1719 0.32812 1.9688 1.4219 1.9219 2.6367v43.441c0 10.281 4.082 20.141 11.352 27.406 7.2695 7.2695 17.129 11.355 27.406 11.355h99.84c10.262-0.035156 20.09-4.1328 27.332-11.395 7.2422-7.2656 11.309-17.109 11.309-27.367v-44.762c-0.011719-1.0703 0.59375-2.0508 1.5625-2.5195 24.215-6.8164 47.57-16.402 69.598-28.559 0.97656-0.66406 2.2617-0.66406 3.2422 0l31.078 31.199c7.2461 7.2656 17.098 11.328 27.359 11.281 10.262 0.046875 20.113-4.0156 27.359-11.281l70.559-70.559h0.003907c7.2461-7.2852 11.316-17.145 11.316-27.422 0-10.273-4.0703-20.133-11.316-27.418l-30.961-30.84c-0.83984-0.70313-1.1328-1.8672-0.71875-2.8828 12.406-22.062 22.191-45.5 29.16-69.84 0.39453-1.125 1.4453-1.8867 2.6367-1.918h44.16c10.168-0.03125 19.922-4.043 27.164-11.176 7.2461-7.1328 11.41-16.82 11.598-26.984v-100.08c0-10.277-4.082-20.137-11.352-27.406-7.2695-7.2695-17.129-11.352-27.41-11.352zm2.7617 138.36c0 0.72266-0.29297 1.4141-0.81641 1.9102-0.51953 0.5-1.2227 0.76172-1.9453 0.73047h-44.16c-8.3203 0.027344-16.41 2.7227-23.086 7.6914-6.6719 4.9688-11.578 11.945-13.992 19.91-6.2891 21.871-15.105 42.934-26.281 62.758-3.9766 7.3281-5.4648 15.758-4.2305 24.004 1.2344 8.25 5.1211 15.871 11.07 21.715l31.078 31.199 0.003906 0.003906c0.52734 0.49609 0.82812 1.1914 0.82812 1.918 0 0.72656-0.30078 1.4219-0.82812 1.9219l-70.559 70.68h-0.003906c-0.53516 0.45703-1.2148 0.71094-1.918 0.71875-0.76953 0.03125-1.5156-0.27734-2.0391-0.83984l-31.078-31.078h-0.003907c-5.8906-5.9219-13.547-9.7695-21.816-10.961-8.2695-1.1914-16.699 0.33984-24.023 4.3594-19.84 10.906-40.855 19.52-62.641 25.68-7.9258 2.4414-14.863 7.3594-19.789 14.031-4.9219 6.6758-7.5781 14.754-7.5703 23.047v44.16c0.035156 0.72266-0.23047 1.4258-0.73047 1.9453-0.49609 0.52344-1.1875 0.81641-1.9102 0.81641h-99.84c-1.5234 0-2.7578-1.2344-2.7578-2.7617v-43.438c0.027343-8.3672-2.6602-16.516-7.6562-23.223-5-6.7109-12.039-11.613-20.066-13.977-21.719-6.1758-42.66-14.832-62.398-25.801-5.6094-3.0391-11.863-4.6836-18.238-4.8008-10.352 0.21094-20.195 4.5273-27.363 12l-31.078 31.199c-0.56641 0.48438-1.293 0.74219-2.0391 0.72266-0.70703-0.007813-1.3867-0.26562-1.9219-0.72266l-70.559-70.68c-0.52734-0.5-0.82812-1.1914-0.82812-1.918 0-0.72656 0.30078-1.4219 0.82812-1.9219l30.961-30.961c6.125-5.9648 10.105-13.789 11.32-22.254s-0.40234-17.094-4.6016-24.543c-11.133-19.875-19.91-40.977-26.16-62.883-2.4609-7.8711-7.375-14.754-14.023-19.633-6.6523-4.8789-14.688-7.5039-22.938-7.4844h-43.438c-1.5273 0-2.7617-1.2383-2.7617-2.7617v-100.08c0-1.5234 1.2344-2.7578 2.7617-2.7578h42.48-0.003907c8.3633-0.003906 16.496-2.7188 23.184-7.7422 6.6836-5.0195 11.562-12.07 13.898-20.098 6.2734-22.105 15.09-43.41 26.281-63.48 3.8164-7.2305 5.2344-15.488 4.0469-23.578-1.1836-8.0898-4.9141-15.594-10.648-21.422l-30.121-30.121c-0.5625-0.52344-0.87109-1.2695-0.83984-2.0391 0.003907-0.72656 0.30859-1.4219 0.83984-1.918l70.562-70.562c1.1094-1.0508 2.8477-1.0508 3.957 0l29.641 29.641c5.9023 5.9492 13.582 9.8125 21.875 11.004 8.293 1.1914 16.75-0.35547 24.086-4.4023 20.207-11.312 41.676-20.215 63.961-26.523 8.0859-2.4414 15.148-7.4805 20.09-14.332 4.9453-6.8516 7.5-15.141 7.2695-23.586v-41.398c0-1.5273 1.2344-2.7617 2.7578-2.7617h99.844c1.5234 0 2.7578 1.2344 2.7578 2.7617v41.16c-0.13281 8.457 2.4844 16.73 7.4648 23.57 4.9766 6.8398 12.043 11.875 20.137 14.348 22.211 6.3008 43.598 15.199 63.719 26.52 7.2969 4.0508 15.715 5.6172 23.98 4.4727 8.2695-1.1484 15.938-4.9492 21.859-10.832l29.762-29.398c0.47656-0.47266 1.125-0.73047 1.7969-0.72266 0.73437-0.011718 1.4336 0.29688 1.9219 0.83984l70.559 70.559v0.003906c0.56641 0.52344 0.87109 1.2695 0.83984 2.0391 0 0.72656-0.30469 1.4219-0.83984 1.918l-29.879 30c-5.5938 5.8984-9.1836 13.414-10.262 21.473-1.0781 8.0547 0.41406 16.25 4.2617 23.41 11.129 20.156 19.867 41.539 26.039 63.719 2.3672 7.9102 7.2148 14.852 13.824 19.801 6.6133 4.9492 14.641 7.6406 22.898 7.6797h42.719c1.5234 0 2.7578 1.2344 2.7578 2.7578z"></path>
 <path d="m600 409.92c-50.414 0-98.762 20.023-134.41 55.672-35.648 35.645-55.672 83.992-55.672 134.41s20.023 98.762 55.672 134.41c35.645 35.648 83.992 55.672 134.41 55.672s98.762-20.023 134.41-55.672c35.648-35.645 55.672-83.992 55.672-134.41-0.0625-50.395-20.109-98.703-55.742-134.34-35.633-35.633-83.941-55.68-134.34-55.742zm0 344.16v-0.003906c-40.863 0-80.055-16.23-108.95-45.129-28.898-28.895-45.129-68.086-45.129-108.95s16.23-80.055 45.129-108.95c28.895-28.898 68.086-45.129 108.95-45.129s80.055 16.23 108.95 45.129c28.898 28.895 45.129 68.086 45.129 108.95-0.03125 40.855-16.273 80.027-45.164 108.91-28.887 28.891-68.059 45.133-108.91 45.164z"></path>
</svg><style>@media (prefers-color-scheme: light) { :root { filter: none; } }
@media (prefers-color-scheme: dark) { :root { filter: invert(100%); } }
</style></svg>